<svg width="800" height="764" viewBox="0 0 800 764" fill="none" xmlns="http://www.w3.org/2000/svg">
<path fill-rule="evenodd" clip-rule="evenodd" d="M182.037 763.592V248.647H10.8984V763.591H182.037V763.592ZM96.4859 178.366C156.147 178.366 193.311 138.791 193.311 89.3766C192.183 38.8641 156.147 0.40625 97.6047 0.40625C39.0531 0.407813 0.78125 38.8656 0.78125 89.3781C0.78125 138.792 37.925 178.367 95.3594 178.367L96.4859 178.366ZM276.756 763.592C276.756 763.592 279.002 296.962 276.756 248.648H447.922V323.327H446.786C469.292 288.186 509.839 236.556 602.161 236.556C714.794 236.556 799.217 310.155 799.217 468.327V763.594H628.08V488.112C628.08 418.892 603.317 371.658 541.366 371.658C494.094 371.658 465.922 403.502 453.55 434.283C449.023 445.239 447.922 460.628 447.922 476.019V763.592H276.756Z" fill="white"/>
</svg>
