<svg width="800" height="800" viewBox="0 0 800 800" fill="none" xmlns="http://www.w3.org/2000/svg">
<path d="M511.125 125H288.85C245.404 125.033 203.748 142.306 173.027 173.027C142.306 203.748 125.033 245.404 125 288.85V511.125C125.026 554.575 142.297 596.238 173.018 626.964C203.74 657.69 245.4 674.967 288.85 675H511.125C554.573 674.96 596.229 657.681 626.949 626.957C657.669 596.232 674.942 554.573 674.975 511.125V288.85C674.955 245.4 657.686 203.736 626.963 173.013C596.239 142.289 554.575 125.02 511.125 125ZM619.675 511.125C619.668 539.912 608.23 567.518 587.874 587.874C567.519 608.23 539.912 619.668 511.125 619.675H288.85C274.596 619.675 260.482 616.867 247.314 611.412C234.145 605.956 222.18 597.96 212.102 587.88C202.025 577.8 194.031 565.833 188.579 552.663C183.126 539.494 180.322 525.379 180.325 511.125V288.85C180.322 274.597 183.127 260.484 188.579 247.315C194.032 234.147 202.026 222.182 212.104 212.104C222.182 202.026 234.147 194.032 247.315 188.579C260.484 183.127 274.597 180.322 288.85 180.325H511.125C539.906 180.332 567.506 191.768 587.856 212.119C608.207 232.47 619.643 260.069 619.65 288.85L619.675 511.125Z" fill="white"/>
<path d="M400.001 257.798C321.551 257.798 257.801 321.573 257.801 399.998C257.801 478.423 321.576 542.198 400.001 542.198C478.426 542.198 542.201 478.423 542.201 399.998C542.201 321.573 478.451 257.798 400.001 257.798ZM400.001 486.873C376.96 486.877 354.862 477.727 338.567 461.437C322.273 445.147 313.117 423.052 313.113 400.011C313.11 376.97 322.26 354.872 338.55 338.577C354.839 322.283 376.935 313.127 399.976 313.123C423.016 313.12 445.115 322.27 461.409 338.56C477.704 354.85 486.86 376.945 486.863 399.986C486.867 423.027 477.717 445.125 461.427 461.419C445.137 477.714 423.041 486.87 400.001 486.873ZM542.501 224.773C549.238 224.778 555.823 226.78 561.422 230.527C567.022 234.273 571.386 239.595 573.962 245.82C576.538 252.045 577.21 258.895 575.895 265.502C574.579 272.11 571.334 278.179 566.57 282.943C561.806 287.707 555.737 290.952 549.13 292.267C542.522 293.583 535.673 292.91 529.447 290.334C523.222 287.758 517.9 283.395 514.154 277.795C510.408 272.195 508.406 265.611 508.401 258.873C508.401 240.073 521.151 224.773 542.501 224.773Z" fill="white"/>
</svg>
